<svg width="100" height="100" viewBox="0 0 100 100" fill="none" xmlns="http://www.w3.org/2000/svg">
<g clip-path="url(#clip0_1367_1289)">
<circle cx="50" cy="50" r="50" fill="black"/>
<path d="M83 70V30" stroke="#F51DDF" stroke-width="5"/>
<path d="M45.0833 30V63.0736C45.0833 63.9832 44.9082 64.8839 44.5679 65.7242C44.2277 66.5646 43.7289 67.3281 43.1002 67.9713C42.4715 68.6145 41.7251 69.1247 40.9036 69.4728C40.0821 69.8208 39.2017 70 38.3125 70C37.4233 70 36.5429 69.8208 35.7214 69.4728C34.8999 69.1247 34.1535 68.6145 33.5248 67.9713C32.8961 67.3281 32.3973 66.5646 32.0571 65.7242C31.7168 64.8839 31.5417 63.9832 31.5417 63.0736V36.9264C31.5417 36.0168 31.3665 35.1161 31.0263 34.2758C30.686 33.4354 30.1873 32.6719 29.5585 32.0287C28.9298 31.3855 28.1834 30.8753 27.3619 30.5272C26.5404 30.1792 25.66 30 24.7708 30C23.8817 30 23.0012 30.1792 22.1797 30.5272C21.3583 30.8753 20.6119 31.3855 19.9831 32.0287C19.3544 32.6719 18.8557 33.4354 18.5154 34.2758C18.1751 35.1161 18 36.0168 18 36.9264V70" stroke="#EBFB35" stroke-width="5"/>
<path d="M57.7222 30V63.0736C57.7222 63.9832 57.8974 64.8839 58.2376 65.7242C58.5779 66.5646 59.0766 67.3281 59.7054 67.9713C60.3341 68.6145 61.0805 69.1247 61.902 69.4728C62.7235 69.8208 63.6039 70 64.4931 70C65.3822 70 66.2627 69.8208 67.0842 69.4728C67.9056 69.1247 68.652 68.6145 69.2808 67.9713C69.9095 67.3281 70.4082 66.5646 70.7485 65.7242C71.0888 64.8839 71.2639 63.9832 71.2639 63.0736V30" stroke="#10F3F3" stroke-width="5"/>
</g>
<defs>
<clipPath id="clip0_1367_1289">
<rect width="100" height="100" fill="white"/>
</clipPath>
</defs>
</svg>
