<svg width="46" height="49" viewBox="0 0 46 49" fill="none" xmlns="http://www.w3.org/2000/svg">
<path d="M37 36C46 35.5 40 7 45.5 0H0V43C0 46 2.5 48.5 9 48.5C16.5 48.5 21 36 22.5 29C23.5207 24.2366 26.4321 25.644 29 26.5C33.5 28 32.5782 36.2457 37 36Z" fill="#10F3F3"/>
<circle cx="26.5" cy="21.5" r="11.5" fill="black"/>
<path fill-rule="evenodd" clip-rule="evenodd" d="M35.9981 21.3673C35.8913 26.5214 31.6799 30.6667 26.5002 30.6667C21.2535 30.6667 17.0002 26.4134 17.0002 21.1667C17.0002 20.86 17.0147 20.5568 17.0431 20.2576C17.2266 19.9989 17.3782 19.7142 17.4933 19.4106C17.6629 18.9634 17.7502 18.4841 17.7502 18C17.7502 18.4841 17.8375 18.9634 18.0071 19.4106C18.1767 19.8578 18.4253 20.2642 18.7387 20.6064C19.0521 20.9487 19.4242 21.2202 19.8337 21.4055C20.2431 21.5907 20.682 21.6861 21.1252 21.6861C21.5684 21.6861 22.0073 21.5907 22.4168 21.4055C22.8262 21.2202 23.1983 20.9487 23.5117 20.6064C23.8251 20.2642 24.0737 19.8578 24.2433 19.4106C24.4129 18.9634 24.5002 18.4841 24.5002 18C24.5002 18.4841 24.5875 18.9634 24.7571 19.4106C24.9267 19.8578 25.1753 20.2642 25.4887 20.6064C25.8021 20.9487 26.1742 21.2202 26.5837 21.4055C26.9931 21.5907 27.432 21.6861 27.8752 21.6861C28.3184 21.6861 28.7573 21.5907 29.1668 21.4055C29.5762 21.2202 29.9483 20.9487 30.2617 20.6064C30.5751 20.2642 30.8237 19.8578 30.9933 19.4106C31.1629 18.9634 31.2502 18.4841 31.2502 18C31.2502 18.4841 31.3375 18.9634 31.5071 19.4106C31.6767 19.8578 31.9253 20.2642 32.2387 20.6064C32.5521 20.9487 32.9242 21.2202 33.3337 21.4055C33.7431 21.5907 34.182 21.6861 34.6252 21.6861C35.0684 21.6861 35.5073 21.5907 35.9168 21.4055C35.9441 21.3931 35.9712 21.3804 35.9981 21.3673Z" fill="#10F3F3"/>
</svg>
