<svg width="70" height="70" viewBox="0 0 70 70" fill="none" xmlns="http://www.w3.org/2000/svg">
<rect width="70" height="70" rx="15" fill="#EBFB35"/>
<path d="M22.9219 57.562V60.1653H45.1947V57.562C45.3352 53.986 46.0428 52.1353 47.5087 48.8843C50.4012 45.124 52.7153 37.8926 52.7153 37.8926C53.2939 32.3967 52.7153 26.9008 52.7153 26.9008C52.8665 24.9059 53.2938 24.2976 54.1616 22.2728C55.0293 20.248 54.7401 19.3802 52.426 19.0909C50.1119 18.8017 47.937 21.9835 47.5087 23.719C47.0803 25.4545 46.5389 27.9767 47.2195 29.5041C46.828 31.598 46.9279 32.5819 44.6162 33.2645L44.6162 13.8843C44.6162 12.438 43.4591 10.9918 41.7236 10.9918C39.9881 10.9918 39.1203 12.7273 39.1203 14.1736V27.4794C39.1203 28.6364 38.5418 28.9256 37.674 28.9256C36.8062 28.9256 36.2277 28.0579 36.2277 26.9009V11.8595C36.2277 10.9918 35.36 9.25623 33.6244 9.25623C31.8889 9.25623 31.0211 10.7025 31.0211 12.1488V28.0579C31.0114 29.0203 30.7319 29.5042 29.8641 29.5042C28.9963 29.5042 28.4014 29.0952 28.4178 27.4794V14.1736C28.4178 12.7273 27.8393 10.9918 26.1038 10.9918C24.3682 10.9918 23.5005 12.1488 23.5005 14.1736V28.9256C23.3687 30.403 23.2336 31.1227 22.3434 31.2397C21.4541 31.0623 21.3076 30.3777 21.1864 28.9256L20.8972 25.7438L15.9798 27.1901C15.9798 27.1901 15.17 35.5785 15.9798 39.6281C16.7896 43.6777 18.5831 45.9918 20.8972 49.4628L20.9253 49.5336C22.1867 52.7038 22.9026 54.503 22.9219 57.562Z" fill="#F374E6"/>
<path d="M35.9385 49.1359C34.4922 47.7273 32.1781 43.967 34.4922 39.6281C36.8063 35.2893 40.5666 35 44.6162 33.2645M44.6162 33.2645L44.6162 13.8843C44.6162 12.438 43.4591 10.9918 41.7236 10.9918C39.9881 10.9918 39.1203 12.7273 39.1203 14.1736V27.4794C39.1203 28.6364 38.5418 28.9256 37.674 28.9256C36.8062 28.9256 36.2277 28.0579 36.2277 26.9009V11.8595C36.2277 10.9918 35.36 9.25623 33.6244 9.25623C31.8889 9.25623 31.0211 10.7025 31.0211 12.1488V28.0579C31.0114 29.0203 30.7319 29.5042 29.8641 29.5042C28.9963 29.5042 28.4014 29.0952 28.4178 27.4794V14.1736C28.4178 12.7273 27.8393 10.9918 26.1038 10.9918C24.3682 10.9918 23.5005 12.1488 23.5005 14.1736V28.9256C23.3687 30.403 23.2336 31.1227 22.3434 31.2397C21.4541 31.0622 21.3076 30.3777 21.1864 28.9256L20.8972 25.7438L15.9798 27.1901C15.9798 27.1901 15.17 35.5785 15.9798 39.6281C16.7896 43.6777 18.5831 45.9918 20.8972 49.4628C22.176 52.6772 22.9024 54.4803 22.9219 57.562V60.1653H45.1947V57.562C45.3352 53.986 46.0428 52.1353 47.5087 48.8843C50.4012 45.124 52.7153 37.8926 52.7153 37.8926C53.2939 32.3967 52.7153 26.9008 52.7153 26.9008C52.8665 24.9059 53.2938 24.2976 54.1616 22.2728C55.0293 20.248 54.7401 19.3802 52.426 19.0909C50.1119 18.8017 47.937 21.9835 47.5087 23.719C47.0803 25.4545 46.5389 27.9767 47.2195 29.5041C46.828 31.598 46.9279 32.5819 44.6162 33.2645Z" stroke="black"/>
</svg>
