<svg width="46" height="49" viewBox="0 0 46 49" fill="none" xmlns="http://www.w3.org/2000/svg">
<path d="M37 36C46 35.5 40 7 45.5 0H0V43C0 46 2.5 48.5 9 48.5C16.5 48.5 21 36 22.5 29C23.5207 24.2366 26.4321 25.644 29 26.5C33.5 28 32.5782 36.2457 37 36Z" fill="#10F3F3"/>
<circle cx="26.5" cy="21.5" r="11.5" fill="black"/>
<path d="M27.5 25C25.9087 25 24.3826 24.3679 23.2574 23.2426C22.1321 22.1174 21.5 20.5913 21.5 19C21.5 15 27.5 8.25 27.5 8.25C27.5 8.25 33.5 15 33.5 19C33.5 20.5913 32.8679 22.1174 31.7426 23.2426C30.6174 24.3679 29.0913 25 27.5 25Z" fill="#10F3F3"/>
</svg>
