<svg width="46" height="49" viewBox="0 0 46 49" fill="none" xmlns="http://www.w3.org/2000/svg">
<path d="M37 36C46 35.5 40 7 45.5 0H0V43C0 46 2.5 48.5 9 48.5C16.5 48.5 21 36 22.5 29C23.5207 24.2366 26.4321 25.644 29 26.5C33.5 28 32.5782 36.2457 37 36Z" fill="#10F3F3"/>
<circle cx="26.5" cy="21.5" r="11.5" fill="black"/>
<path d="M29 27.6666C27.6739 27.6666 26.4021 27.1399 25.4645 26.2022C24.5268 25.2645 24 23.9927 24 22.6666C24 19.3333 29 13.7083 29 13.7083C29 13.7083 34 19.3333 34 22.6666C34 23.9927 33.4732 25.2645 32.5355 26.2022C31.5979 27.1399 30.3261 27.6666 29 27.6666Z" fill="#10F3F3"/>
<path d="M21.5 19.8334C20.638 19.8334 19.8114 19.4909 19.2019 18.8815C18.5924 18.272 18.25 17.4453 18.25 16.5834C18.25 14.4167 21.5 10.7604 21.5 10.7604C21.5 10.7604 24.75 14.4167 24.75 16.5834C24.75 17.4453 24.4076 18.272 23.7981 18.8815C23.1886 19.4909 22.362 19.8334 21.5 19.8334Z" fill="#10F3F3"/>
<path d="M33.5 16.5C32.9033 16.5 32.331 16.2629 31.909 15.841C31.4871 15.419 31.25 14.8467 31.25 14.25C31.25 12.75 33.5 10.2188 33.5 10.2188C33.5 10.2188 35.75 12.75 35.75 14.25C35.75 14.8467 35.5129 15.419 35.091 15.841C34.669 16.2629 34.0967 16.5 33.5 16.5Z" fill="#10F3F3"/>
</svg>
