<svg width="47" height="49" viewBox="0 0 47 49" fill="none" xmlns="http://www.w3.org/2000/svg">
<path d="M37.5 36C46.5 35.5 40.5 7 46 0H0.5V43C0.5 46 3 48.5 9.5 48.5C17 48.5 21.5 36 23 29C24.0207 24.2366 26.9321 25.644 29.5 26.5C34 28 33.0782 36.2457 37.5 36Z" fill="#10F3F3"/>
<circle cx="25" cy="19.5" r="11.5" fill="black"/>
<path d="M27 24C25.4087 24 23.8826 23.3679 22.7574 22.2426C21.6321 21.1174 21 19.5913 21 18C21 14 27 7.25 27 7.25C27 7.25 33 14 33 18C33 19.5913 32.3679 21.1174 31.2426 22.2426C30.1174 23.3679 28.5913 24 27 24Z" fill="#10F3F3"/>
</svg>
